HIERARCHY
ROOT Hips
{
	OFFSET 0.000000 0.000000 0.000000
	CHANNELS 6 Xposition Yposition Zposition Xrotation Yrotation Zrotation
	JOINT LeftUpLeg_virtual
	{
		OFFSET 0.000000 0.000000 0.000000
		CHANNELS 3 Xrotation Yrotation Zrotation
		JOINT LeftUpLeg
		{
			OFFSET 10.205400 -3.823500 0.155100
			CHANNELS 3 Xrotation Yrotation Zrotation
			JOINT LeftLeg
			{
				OFFSET 0.708757 -12.982077 0.567790
				CHANNELS 3 Xrotation Yrotation Zrotation
				JOINT LeftFoot
				{
					OFFSET -0.708756 -10.717838 -2.184338
					CHANNELS 3 Xrotation Yrotation Zrotation
					JOINT LeftToeBase
					{
						OFFSET 0.108149 -7.191104 7.560241
						CHANNELS 3 Xrotation Yrotation Zrotation
						JOINT LeftToe_End
						{
							OFFSET 0.070230 0.081724 4.490308
							CHANNELS 3 Xrotation Yrotation Zrotation
							End Site
							{
								OFFSET 0 0 0
							}
						}
					}
				}
			}
		}
	}
	JOINT RightUpLeg_virtual
	{
		OFFSET 0.000000 0.000000 0.000000
		CHANNELS 3 Xrotation Yrotation Zrotation
		JOINT RightUpLeg
		{
			OFFSET -10.205400 -3.823500 0.005500
			CHANNELS 3 Xrotation Yrotation Zrotation
			JOINT RightLeg
			{
				OFFSET -0.708756 -12.982134 0.610632
				CHANNELS 3 Xrotation Yrotation Zrotation
				JOINT RightFoot
				{
					OFFSET 0.708754 -10.717769 -1.945823
					CHANNELS 3 Xrotation Yrotation Zrotation
					JOINT RightToeBase
					{
						OFFSET -0.108140 -7.191069 7.372968
						CHANNELS 3 Xrotation Yrotation Zrotation
						JOINT RightToe_End
						{
							OFFSET -0.070227 0.081735 4.479403
							CHANNELS 3 Xrotation Yrotation Zrotation
							End Site
							{
								OFFSET 0 0 0
							}
						}
					}
				}
			}
		}
	}
	JOINT Spine_virtual
	{
		OFFSET 0.000000 0.000000 0.000000
		CHANNELS 3 Xrotation Yrotation Zrotation
		JOINT Spine
		{
			OFFSET 0.000000 6.876099 0.125700
			CHANNELS 3 Xrotation Yrotation Zrotation
			JOINT Spine1
			{
				OFFSET 0.000000 5.730043 0.104720
				CHANNELS 3 Xrotation Yrotation Zrotation
				JOINT Spine1_split
				{
					OFFSET 0.000000 5.730043 0.104720
					CHANNELS 3 Xrotation Yrotation Zrotation
					JOINT Spine2
					{
						OFFSET 0.000000 5.730043 0.104720
						CHANNELS 3 Xrotation Yrotation Zrotation
						JOINT Neck_virtual
						{
							OFFSET 0.000000 0.000000 0.000000
							CHANNELS 3 Xrotation Yrotation Zrotation
							JOINT Neck
							{
								OFFSET 0.000000 10.314075 0.188496
								CHANNELS 3 Xrotation Yrotation Zrotation
								JOINT Head
								{
									OFFSET 0.000000 7.643700 -2.377400
									CHANNELS 3 Xrotation Yrotation Zrotation
									JOINT HeadTop_End
									{
										OFFSET 0.000000 43.788605 -13.619600
										CHANNELS 3 Xrotation Yrotation Zrotation
										End Site
										{
											OFFSET 0 0 0
										}
									}
								}
							}
						}
						JOINT LeftShoulder_virtual
						{
							OFFSET 0.000000 0.000000 0.000000
							CHANNELS 3 Xrotation Yrotation Zrotation
							JOINT LeftShoulder
							{
								OFFSET 2.196100 4.412489 0.087492
								CHANNELS 3 Xrotation Yrotation Zrotation
								JOINT LeftShoulder_split
								{
									OFFSET 2.196100 4.412489 0.087492
									CHANNELS 3 Xrotation Yrotation Zrotation
									JOINT LeftArm
									{
										OFFSET 8.771219 -2.981674 -0.026999
										CHANNELS 3 Xrotation Yrotation Zrotation
										JOINT LeftForeArm
										{
											OFFSET 8.512804 0.000000 -0.000000
											CHANNELS 3 Xrotation Yrotation Zrotation
											JOINT LeftHand
											{
												OFFSET 18.484802 0.000000 -0.000000
												CHANNELS 3 Xrotation Yrotation Zrotation
												End Site
												{
													OFFSET 0 0 0
												}
											}
										}
									}
								}
							}
						}
						JOINT RightShoulder_virtual
						{
							OFFSET 0.000000 0.000000 0.000000
							CHANNELS 3 Xrotation Yrotation Zrotation
							JOINT RightShoulder
							{
								OFFSET -2.196100 4.412496 0.070690
								CHANNELS 3 Xrotation Yrotation Zrotation
								JOINT RightShoulder_split
								{
									OFFSET -2.196100 4.412496 0.070690
									CHANNELS 3 Xrotation Yrotation Zrotation
									JOINT RightArm
									{
										OFFSET -8.771282 -2.981682 -0.094208
										CHANNELS 3 Xrotation Yrotation Zrotation
										JOINT RightForeArm
										{
											OFFSET -8.494598 0.000000 0.000000
											CHANNELS 3 Xrotation Yrotation Zrotation
											JOINT RightHand
											{
												OFFSET -18.483803 0.000000 0.000001
												CHANNELS 3 Xrotation Yrotation Zrotation
												End Site
												{
													OFFSET 0 0 0
												}
											}
										}
									}
								}
							}
						}
					}
				}
			}
		}
	}
}
MOTION
Frames: 7
Frame Time: 0.03333333
2.701370 9.262314 -0.737825 0.000000 0.000000 0.000000 -84.306002 -6.142697 -10.182843 -6.819893 36.780859 2.853093 27.520441 22.960094 -23.839845 5.899168 -17.943669 20.648456 22.386240 0.522258 16.165444 0.000000 0.000000 0.000000 -82.015894 -5.079020 -9.913676 -21.418777 -34.365291 -15.913439 18.395871 -6.747504 6.847425 11.325225 -1.883929 -14.522031 17.306306 -17.384887 -41.828150 0.000000 0.000000 0.000000 -84.216895 -5.934706 -11.413816 9.464776 -0.051267 -3.282014 4.316697 -3.677473 0.571479 -0.026614 0.958751 -0.263421 0.000000 0.000000 0.000000 1.164377 -0.769707 2.567648 -9.718006 -8.391022 5.584079 19.781990 -78.671744 31.791618 0.000000 0.000000 0.000000 -4.062810 -0.223624 -1.473575 -0.637617 -9.229534 5.203203 1.846505 1.721151 -7.275874 44.700815 1.245576 -51.566856 -167.960704 -50.847179 -177.545358 0.000000 0.000000 0.000000 1.743610 -2.110858 -2.177475 -0.102722 -5.107350 1.921167 -12.022290 -3.283853 8.871296 22.020626 21.031121 62.112682 -175.812252 36.995358 -176.544052 0.000000 0.000000 0.000000 
2.701194 9.262190 -0.739544 0.000000 0.000000 0.000000 -84.300968 -6.144261 -10.184380 -6.819727 36.773554 2.850557 27.521542 22.968236 -23.842368 5.901309 -17.939702 20.649055 22.386001 0.522008 16.165176 0.000000 0.000000 0.000000 -82.011707 -5.082191 -9.917738 -21.412462 -34.365445 -15.916426 18.389711 -6.746629 6.849182 11.324295 -1.881745 -14.527444 17.307544 -17.386351 -41.826163 0.000000 0.000000 0.000000 -84.213849 -5.928556 -11.415552 9.461784 -0.055734 -3.281044 4.321440 -3.681547 0.568982 -0.026398 0.958411 -0.264090 0.000000 0.000000 0.000000 1.160907 -0.774642 2.569159 -9.721155 -8.380083 5.577310 19.845427 -78.671471 31.837738 0.000000 0.000000 0.000000 -4.067471 -0.225523 -1.479205 -0.642032 -9.211446 5.199605 1.836060 1.701863 -7.241744 44.730646 1.245342 -51.552028 -167.947194 -50.835571 -177.540126 0.000000 0.000000 0.000000 1.747900 -2.112183 -2.178059 -0.108427 -5.123870 1.913395 -12.029746 -3.314320 8.874039 22.031909 21.053679 62.099936 -175.807020 36.971466 -176.551101 0.000000 0.000000 0.000000 
2.700438 9.262218 -0.741598 0.000000 0.000000 0.000000 -84.295572 -6.145362 -10.188140 -6.823813 36.769183 2.852127 27.523618 22.972595 -23.847191 5.904812 -17.933934 20.649067 22.386382 0.521824 16.165922 0.000000 0.000000 0.000000 -82.009576 -5.085977 -9.924232 -21.405815 -34.366370 -15.921313 18.381608 -6.744422 6.853944 11.326745 -1.876861 -14.531873 17.306359 -17.387493 -41.823280 0.000000 0.000000 0.000000 -84.207633 -5.923593 -11.418833 9.458966 -0.063148 -3.275879 4.328643 -3.687884 0.565969 -0.027646 0.958647 -0.264332 0.000000 0.000000 0.000000 1.158543 -0.781317 2.569945 -9.735420 -8.361288 5.571537 19.907744 -78.667715 31.878272 0.000000 0.000000 0.000000 -4.069249 -0.229238 -1.484832 -0.645300 -9.187982 5.203721 1.814285 1.674498 -7.208703 44.770551 1.236982 -51.543138 -167.931962 -50.823407 -177.535782 0.000000 0.000000 0.000000 1.753031 -2.115326 -2.179450 -0.114325 -5.136864 1.901424 -12.056496 -3.332488 8.873678 22.048638 21.072356 62.105230 -175.806296 36.937465 -176.561182 0.000000 0.000000 0.000000 
2.699268 9.262598 -0.743608 0.000000 0.000000 0.000000 -84.293284 -6.146384 -10.193552 -6.830832 36.768892 2.855415 27.525794 22.974665 -23.855103 5.909418 -17.926392 20.648895 22.385793 0.521555 16.168221 0.000000 0.000000 0.000000 -82.009760 -5.089432 -9.931770 -21.400709 -34.367818 -15.927209 18.372130 -6.741585 6.861699 11.333740 -1.869534 -14.533804 17.301834 -17.387770 -41.820688 0.000000 0.000000 0.000000 -84.198276 -5.920836 -11.424304 9.457088 -0.072684 -3.266916 4.338563 -3.694929 0.562966 -0.029516 0.959977 -0.264306 0.000000 0.000000 0.000000 1.156584 -0.789060 2.570356 -9.758874 -8.336098 5.565430 19.961440 -78.662838 31.906016 0.000000 0.000000 0.000000 -4.068857 -0.233596 -1.490632 -0.647478 -9.159555 5.212247 1.781309 1.644714 -7.184644 44.810682 1.225752 -51.539293 -167.920310 -50.814968 -177.535249 0.000000 0.000000 0.000000 1.759612 -2.119154 -2.182173 -0.121277 -5.145713 1.886251 -12.092871 -3.335443 8.867069 22.068818 21.083460 62.124525 -175.809356 36.897385 -176.574610 0.000000 0.000000 0.000000 
2.697822 9.263655 -0.745537 0.000000 0.000000 0.000000 -84.294547 -6.147719 -10.199304 -6.839559 36.772485 2.857751 27.529737 22.974282 -23.866732 5.914079 -17.917046 20.649284 22.384226 0.521201 16.171953 0.000000 0.000000 0.000000 -82.011120 -5.092243 -9.938638 -21.396997 -34.368399 -15.933054 18.360226 -6.738663 6.870993 11.343898 -1.860144 -14.532679 17.292866 -17.386547 -41.819927 0.000000 0.000000 0.000000 -84.186371 -5.920469 -11.432517 9.456384 -0.083924 -3.255081 4.350645 -3.702031 0.560340 -0.030181 0.962132 -0.264350 0.000000 0.000000 0.000000 1.154426 -0.797237 2.571027 -9.788932 -8.304774 5.558189 19.996584 -78.659395 31.910716 0.000000 0.000000 0.000000 -4.066739 -0.237880 -1.496432 -0.649086 -9.125174 5.221456 1.737278 1.609617 -7.169738 44.841804 1.216705 -51.536561 -167.921089 -50.809846 -177.547093 0.000000 0.000000 0.000000 1.768335 -2.122778 -2.186534 -0.129519 -5.151789 1.868467 -12.137398 -3.331328 8.854732 22.091135 21.085846 62.152973 -175.813591 36.852935 -176.592437 0.000000 0.000000 0.000000 
2.696215 9.265482 -0.747057 0.000000 0.000000 0.000000 -84.295545 -6.148018 -10.202529 -6.849438 36.779394 2.858252 27.535824 22.970669 -23.881388 5.917390 -17.905804 20.650802 22.382929 0.520894 16.176374 0.000000 0.000000 0.000000 -82.013230 -5.095412 -9.945485 -21.393426 -34.367251 -15.938274 18.346139 -6.736375 6.879487 11.353566 -1.850543 -14.529964 17.280155 -17.383846 -41.821580 0.000000 0.000000 0.000000 -84.172123 -5.920774 -11.441237 9.456508 -0.096487 -3.241537 4.364166 -3.708890 0.558822 -0.029858 0.964122 -0.263957 0.000000 0.000000 0.000000 1.152177 -0.805551 2.573239 -9.823883 -8.267306 5.549679 20.004337 -78.660502 31.884303 0.000000 0.000000 0.000000 -4.064780 -0.241560 -1.501604 -0.650979 -9.083497 5.228482 1.681321 1.568744 -7.167460 44.856868 1.213368 -51.530683 -167.942535 -50.803804 -177.579564 0.000000 0.000000 0.000000 1.779693 -2.125689 -2.191921 -0.138916 -5.156578 1.848968 -12.190108 -3.329543 8.837028 22.114710 21.080515 62.184788 -175.815230 36.801787 -176.617122 0.000000 0.000000 0.000000 
2.694527 9.267912 -0.748341 0.000000 0.000000 0.000000 -84.294520 -6.146952 -10.203879 -6.859601 36.787969 2.858232 27.542043 22.962483 -23.897164 5.918820 -17.892681 20.652711 22.382651 0.520803 16.180783 0.000000 0.000000 0.000000 -82.015122 -5.099071 -9.952879 -21.387863 -34.364826 -15.942076 18.331748 -6.735852 6.885967 11.359639 -1.843032 -14.528290 17.266836 -17.380417 -41.825131 0.000000 0.000000 0.000000 -84.156461 -5.918847 -11.447193 9.457954 -0.109497 -3.227613 4.378798 -3.715941 0.559484 -0.028884 0.964536 -0.263215 0.000000 0.000000 0.000000 1.149881 -0.813898 2.578337 -9.863031 -8.224018 5.540552 19.961539 -78.668445 31.806774 0.000000 0.000000 0.000000 -4.064853 -0.244860 -1.504964 -0.654128 -9.035416 5.232575 1.623702 1.536258 -7.172918 44.850277 1.215124 -51.518300 -167.989281 -50.788832 -177.638016 0.000000 0.000000 0.000000 1.792824 -2.128285 -2.196881 -0.149132 -5.163383 1.826346 -12.248952 -3.329816 8.818462 22.139864 21.071535 62.215210 -175.810504 36.738071 -176.650999 0.000000 0.000000 0.000000 
